<svg width="1000" height="1000" viewBox="0 0 1000 1000" fill="none" xmlns="http://www.w3.org/2000/svg">
<rect width="1000" height="1000" rx="100" fill="#17171B"/>
<path d="M397.176 601.831C371.697 601.831 351.043 581.177 351.043 555.706V408.926C351.043 277.186 458.236 170 589.984 170C721.724 170 828.895 277.186 828.895 408.926C828.895 434.405 808.248 455.059 782.77 455.059C757.299 455.059 736.644 434.405 736.644 408.926C736.644 328.054 670.849 262.251 589.976 262.251C509.089 262.251 443.294 328.054 443.294 408.926V555.706C443.309 581.177 422.654 601.831 397.176 601.831Z" fill="white"/>
<path d="M409.919 830.788C278.179 830.788 171 723.617 171 591.869C171 566.391 191.654 545.744 217.133 545.744C242.611 545.744 263.258 566.391 263.258 591.869C263.258 672.734 329.054 738.537 409.926 738.537C490.806 738.537 556.609 672.734 556.609 591.869V445.082C556.609 419.604 577.263 398.949 602.734 398.949C628.213 398.949 648.86 419.604 648.86 445.082V591.869C648.845 723.617 541.666 830.788 409.919 830.788Z" fill="white"/>
</svg>
