<svg width="658" height="661" viewBox="0 0 658 661" fill="none" xmlns="http://www.w3.org/2000/svg">
<path d="M226.176 431.831C200.697 431.831 180.043 411.177 180.043 385.706V238.926C180.043 107.186 287.236 0 418.984 0C550.724 0 657.895 107.186 657.895 238.926C657.895 264.405 637.248 285.059 611.77 285.059C586.299 285.059 565.644 264.405 565.644 238.926C565.644 158.054 499.849 92.2508 418.976 92.2508C338.089 92.2508 272.294 158.054 272.294 238.926V385.706C272.309 411.177 251.654 431.831 226.176 431.831Z" fill="black"/>
<path d="M238.919 660.788C107.179 660.788 0 553.617 0 421.869C0 396.391 20.6543 375.744 46.1329 375.744C71.6115 375.744 92.2583 396.391 92.2583 421.869C92.2583 502.734 158.054 568.537 238.926 568.537C319.806 568.537 385.609 502.734 385.609 421.869V275.082C385.609 249.604 406.263 228.949 431.734 228.949C457.213 228.949 477.86 249.604 477.86 275.082V421.869C477.845 553.617 370.666 660.788 238.919 660.788Z" fill="black"/>
</svg>
